<svg version="1.1" viewBox="0.0 0.0 144.0 144.0" fill="none" stroke="none" stroke-linecap="square" stroke-miterlimit="10" xmlns:xlink="http://www.w3.org/1999/xlink" xmlns="http://www.w3.org/2000/svg"><clipPath id="g24d16d50987_0_36.0"><path d="m0 0l144.0 0l0 144.0l-144.0 0l0 -144.0z" clip-rule="nonzero"/></clipPath><g clip-path="url(#g24d16d50987_0_36.0)"><path fill="#ffffff" d="m0 0l144.0 0l0 144.0l-144.0 0z" fill-rule="evenodd"/><g filter="url(#shadowFilter-g24d16d50987_0_36.1)"><use xlink:href="#g24d16d50987_0_36.1" transform="matrix(1.0 0.0 0.0 1.0 0.0 2.0)"/></g><defs><filter id="shadowFilter-g24d16d50987_0_36.1" filterUnits="userSpaceOnUse"><feGaussianBlur in="SourceAlpha" stdDeviation="2.0" result="blur"/><feComponentTransfer in="blur" color-interpolation-filters="sRGB"><feFuncR type="linear" slope="0" intercept="0.0"/><feFuncG type="linear" slope="0" intercept="0.0"/><feFuncB type="linear" slope="0" intercept="0.0"/><feFuncA type="linear" slope="0.5" intercept="0"/></feComponentTransfer></filter></defs><g id="g24d16d50987_0_36.1"><path fill="#d9d2e9" d="m21.178505 71.99899l0 0c0 -27.831673 22.096687 -50.393703 49.354332 -50.393703l0 0c13.089584 0 25.643051 5.3093224 34.89878 14.759975c9.25573 9.450649 14.455551 22.268486 14.455551 35.633728l0 0c0 27.831673 -22.096687 50.3937 -49.354332 50.3937l0 0c-27.257645 0 -49.354332 -22.562027 -49.354332 -50.3937z" fill-rule="evenodd"/></g><path fill="#000000" fill-opacity="0.0" d="m141.77254 27.524668l-65.44882 -16.503937l-28.472443 112.8189l65.44882 16.503937z" fill-rule="evenodd"/><path fill="#8e7cc3" d="m96.39072 60.17239q1.2311478 -4.878292 -4.13221 -6.230747q-1.7726364 -0.44699478 -3.440216 -0.41630554q-1.6524277 0.03450775 -2.0819016 0.58688736q-0.42947388 0.5523796 -0.7429962 1.7946815l-1.0361557 4.105644l-7.7748566 -2.5245476l2.6840591 -10.635284q8.337509 -1.6843872 15.125038 0.027194977q6.7875214 1.7115784 9.317757 5.7335815q2.5492172 4.0106773 1.264534 9.10107q-1.2808533 5.075245 -4.0754547 7.464451q-2.7946014 2.3892136 -6.6484604 3.9311981q-3.8538666 1.5419922 -4.9775925 2.4188461q-1.1237259 0.87685394 -1.761383 3.020378l-2.531372 8.433922l-7.454155 -1.8796768l1.6744232 -8.231056q0.15676117 -0.62114716 0.29440308 -1.1665497q0.86027527 -3.4087448 2.6723251 -5.352806q2.0209122 -2.1331177 7.6082153 -4.349869q3.030754 -1.2177811 3.5739365 -1.7737198q0.56214905 -0.56726456 1.1128311 -1.0890846q0.8398285 -1.0290108 1.3292313 -2.9682083zm-18.365845 41.165104q-2.4392624 -0.61509705 -3.5077133 -2.4475937q-1.049469 -1.8438263 -0.50271606 -4.010269q0.5467529 -2.1664505 2.3987198 -3.3108597q1.8519669 -1.1444092 4.215477 -0.54841614q2.378662 0.59981537 3.485054 2.4096527q1.1063995 1.8098373 0.5596466 3.9762802q-0.5467529 2.1664505 -2.3798904 3.3639526q-1.8141556 1.1861725 -4.2685776 0.5672531z" fill-rule="nonzero"/><path fill="#b4a7d6" d="m74.62854 121.96029l0 0c14.071785 -1.6674194 26.67788 -8.406212 34.714302 -18.55709c8.03643 -10.150879 10.756485 -22.77069 7.490425 -34.752075z" fill-rule="evenodd"/><path fill="#b4a7d6" d="m109.989334 97.76769l0 0c13.498077 -16.337906 13.148705 -38.62096 -0.8563843 -54.62039z" fill-rule="evenodd"/><path fill="#b4a7d6" d="m97.36497 109.359406c22.532097 -12.104294 29.21251 -36.07763 15.213501 -54.595222z" fill-rule="evenodd"/><g filter="url(#shadowFilter-g24d16d50987_0_36.2)"><use xlink:href="#g24d16d50987_0_36.2" transform="matrix(1.0 0.0 0.0 1.0 0.0 2.0000000000000093)"/></g><defs><filter id="shadowFilter-g24d16d50987_0_36.2" filterUnits="userSpaceOnUse"><feGaussianBlur in="SourceAlpha" stdDeviation="2.0" result="blur"/><feComponentTransfer in="blur" color-interpolation-filters="sRGB"><feFuncR type="linear" slope="0" intercept="0.0"/><feFuncG type="linear" slope="0" intercept="0.0"/><feFuncB type="linear" slope="0" intercept="0.0"/><feFuncA type="linear" slope="0.5" intercept="0"/></feComponentTransfer></filter></defs><g id="g24d16d50987_0_36.2"><path fill="#595959" d="m73.52566 69.22469l0 0c0 -1.7830048 -1.4454117 -3.2284088 -3.2284088 -3.2284088l-19.810898 0c-0.8562279 0 -1.6773872 0.34013367 -2.2828293 0.9455795c-0.60544586 0.60544586 -0.9455795 1.4266052 -0.9455795 2.2828293l0 12.913261c0 1.7829971 1.4454079 3.2284088 3.2284088 3.2284088l19.810898 0c1.7829971 0 3.2284088 -1.4454117 3.2284088 -3.2284088z" fill-rule="evenodd"/></g><path fill="#000000" fill-opacity="0.0" d="m47.257942 75.68132c-3.1417313 0 -4.7126007 0.01574707 -6.2834663 0.03150177c-1.5708656 0.01574707 -3.1417313 0.03149414 -6.2834625 0.03149414" fill-rule="evenodd"/><path stroke="#595959" stroke-width="3.0" stroke-linejoin="round" stroke-linecap="butt" d="m47.257942 75.68132c-3.1417313 0 -4.7126007 0.01574707 -6.2834663 0.03150177c-1.5708656 0.01574707 -3.1417313 0.03149414 -6.2834625 0.03149414" fill-rule="evenodd"/><path fill="#000000" fill-opacity="0.0" d="m69.835945 75.688675c12.48819 0 18.732285 -1.8267746 24.97638 -3.6535492c6.244087 -1.826767 12.488182 -3.6535416 24.976372 -3.6535416" fill-rule="evenodd"/><path stroke="#595959" stroke-width="3.0" stroke-linejoin="round" stroke-linecap="butt" d="m69.835945 75.688675c12.48819 0 18.732285 -1.8267746 24.97638 -3.6535492c6.244087 -1.826767 12.488182 -3.6535416 24.976372 -3.6535416" fill-rule="evenodd"/><g filter="url(#shadowFilter-g24d16d50987_0_36.3)"><use xlink:href="#g24d16d50987_0_36.3" transform="matrix(1.0 0.0 0.0 1.0 0.0 2.0000000000000093)"/></g><defs><filter id="shadowFilter-g24d16d50987_0_36.3" filterUnits="userSpaceOnUse"><feGaussianBlur in="SourceAlpha" stdDeviation="2.0" result="blur"/><feComponentTransfer in="blur" color-interpolation-filters="sRGB"><feFuncR type="linear" slope="0" intercept="0.0"/><feFuncG type="linear" slope="0" intercept="0.0"/><feFuncB type="linear" slope="0" intercept="0.0"/><feFuncA type="linear" slope="0.5" intercept="0"/></feComponentTransfer></filter></defs><g id="g24d16d50987_0_36.3"><path fill="#595959" d="m38.363625 69.22469l0 0c0 -1.7830048 -1.4454117 -3.2284088 -3.2284126 -3.2284088l-15.243965 0c-0.8562279 0 -1.6773872 0.34013367 -2.2828312 0.9455795c-0.60544395 0.60544586 -0.9455795 1.4266052 -0.9455795 2.2828293l0 12.913261c0 1.7829971 1.4454098 3.2284088 3.2284107 3.2284088l15.243965 0c1.783001 0 3.2284126 -1.4454117 3.2284126 -3.2284088z" fill-rule="evenodd"/></g></g></svg>